<?xml version="1.0" encoding="UTF-8"?>
<svg xmlns="http://www.w3.org/2000/svg" viewBox="0 0 1000 720" font-family="system-ui, -apple-system, sans-serif">
  <rect width="1000" height="720" fill="#0D1117"/>

  <defs>
    <marker id="arr" viewBox="0 0 10 10" refX="9" refY="5" markerWidth="6" markerHeight="6" orient="auto-start-reverse">
      <path d="M 0 0 L 10 5 L 0 10 z" fill="#4A5563"/>
    </marker>
    <marker id="arr-orange" viewBox="0 0 10 10" refX="9" refY="5" markerWidth="6" markerHeight="6" orient="auto-start-reverse">
      <path d="M 0 0 L 10 5 L 0 10 z" fill="#F97316"/>
    </marker>
  </defs>

  <!-- Upload triggers Orchestrator -->
  <line x1="320" y1="85" x2="395" y2="125" stroke="#F97316" stroke-width="1.5" marker-end="url(#arr-orange)"/>
  <text x="338" y="112" fill="#F97316" font-size="11">triggers</text>

  <!-- Orchestrator delegations -->
  <line x1="370" y1="200" x2="180" y2="270" stroke="#4A5563" stroke-width="1.2" marker-end="url(#arr)"/>
  <line x1="405" y1="215" x2="345" y2="270" stroke="#4A5563" stroke-width="1.2" marker-end="url(#arr)"/>
  <line x1="445" y1="200" x2="555" y2="270" stroke="#4A5563" stroke-width="1.2" marker-end="url(#arr)"/>
  <text x="240" y="245" fill="#6B7280" font-size="10">delegates</text>
  <text x="475" y="245" fill="#6B7280" font-size="10">delegates</text>

  <line x1="475" y1="160" x2="695" y2="160" stroke="#4A5563" stroke-width="1.2" marker-end="url(#arr)"/>
  <text x="555" y="153" fill="#6B7280" font-size="10">delegates</text>

  <!-- Agent → tool (uses) -->
  <line x1="170" y1="350" x2="170" y2="370" stroke="#4A5563" stroke-width="1" stroke-dasharray="4 3" marker-end="url(#arr)"/>
  <line x1="345" y1="350" x2="345" y2="370" stroke="#4A5563" stroke-width="1" stroke-dasharray="4 3" marker-end="url(#arr)"/>
  <line x1="610" y1="350" x2="610" y2="370" stroke="#4A5563" stroke-width="1" stroke-dasharray="4 3" marker-end="url(#arr)"/>
  <line x1="750" y1="206" x2="750" y2="235" stroke="#4A5563" stroke-width="1" stroke-dasharray="4 3" marker-end="url(#arr)"/>

  <!-- VendorIntel → RiskAgent -->
  <line x1="580" y1="350" x2="555" y2="444" stroke="#4A5563" stroke-width="1.2" marker-end="url(#arr)"/>
  <text x="585" y="400" fill="#6B7280" font-size="10">delegates</text>

  <!-- RiskAgent → sanctions_mcp -->
  <line x1="605" y1="490" x2="730" y2="490" stroke="#4A5563" stroke-width="1" stroke-dasharray="4 3" marker-end="url(#arr)"/>
  <text x="640" y="483" fill="#6B7280" font-size="10">uses</text>

  <!-- RiskAgent → PaymentAgent -->
  <line x1="550" y1="536" x2="550" y2="574" stroke="#4A5563" stroke-width="1.2" marker-end="url(#arr)"/>
  <text x="560" y="560" fill="#6B7280" font-size="10">delegates</text>

  <!-- PaymentAgent → stripe_charge -->
  <line x1="605" y1="620" x2="730" y2="620" stroke="#4A5563" stroke-width="1" stroke-dasharray="4 3" marker-end="url(#arr)"/>
  <text x="640" y="613" fill="#6B7280" font-size="10">uses</text>

  <!-- Trigger -->
  <polygon points="320,40 360,75 320,110 280,75" fill="#082326" stroke="#06B6D4" stroke-width="1.5"/>
  <text x="320" y="79" text-anchor="middle" fill="#06B6D4" font-size="11" font-weight="600">Upload</text>
  <text x="320" y="128" text-anchor="middle" fill="#6B7280" font-size="9">ManualPortal · Email · Webhook</text>

  <!-- Orchestrator -->
  <polygon points="365,160 392,114 448,114 475,160 448,206 392,206" fill="#0F1C2E" stroke="#4A90D9" stroke-width="1.5"/>
  <text x="420" y="164" text-anchor="middle" fill="#4A90D9" font-size="12" font-weight="600">Orchestrator</text>

  <!-- DocAI -->
  <polygon points="115,305 142,260 198,260 225,305 198,350 142,350" fill="#0F1C2E" stroke="#4A90D9" stroke-width="1.5"/>
  <text x="170" y="309" text-anchor="middle" fill="#4A90D9" font-size="11" font-weight="600">DocAI</text>

  <!-- PolicyAgent -->
  <polygon points="290,305 317,260 373,260 400,305 373,350 317,350" fill="#0F1C2E" stroke="#4A90D9" stroke-width="1.5"/>
  <text x="345" y="309" text-anchor="middle" fill="#4A90D9" font-size="11" font-weight="600">PolicyAgent</text>

  <!-- VendorIntel -->
  <polygon points="555,305 582,260 638,260 665,305 638,350 582,350" fill="#0F1C2E" stroke="#4A90D9" stroke-width="1.5"/>
  <text x="610" y="309" text-anchor="middle" fill="#4A90D9" font-size="11" font-weight="600">VendorIntel</text>

  <!-- NotificationAgent -->
  <polygon points="695,160 722,114 778,114 805,160 778,206 722,206" fill="#0F1C2E" stroke="#4A90D9" stroke-width="1.5"/>
  <text x="750" y="158" text-anchor="middle" fill="#4A90D9" font-size="10" font-weight="600">Notification</text>
  <text x="750" y="172" text-anchor="middle" fill="#4A90D9" font-size="10" font-weight="600">Agent</text>

  <!-- RiskAgent -->
  <polygon points="495,490 522,444 578,444 605,490 578,536 522,536" fill="#0F1C2E" stroke="#4A90D9" stroke-width="1.5"/>
  <text x="550" y="494" text-anchor="middle" fill="#4A90D9" font-size="11" font-weight="600">RiskAgent</text>

  <!-- PaymentAgent -->
  <polygon points="495,620 522,574 578,574 605,620 578,666 522,666" fill="#0F1C2E" stroke="#4A90D9" stroke-width="1.5"/>
  <text x="550" y="617" text-anchor="middle" fill="#4A90D9" font-size="10" font-weight="600">Payment</text>
  <text x="550" y="630" text-anchor="middle" fill="#4A90D9" font-size="10" font-weight="600">Agent</text>

  <!-- Tools -->
  <rect x="115" y="370" width="110" height="32" rx="6" fill="#091918" stroke="#22C55E" stroke-width="1.2"/>
  <text x="170" y="391" text-anchor="middle" fill="#22C55E" font-size="10">parse_pdf</text>

  <rect x="275" y="370" width="140" height="32" rx="6" fill="#091918" stroke="#22C55E" stroke-width="1.2"/>
  <text x="345" y="391" text-anchor="middle" fill="#22C55E" font-size="10">query_policy_kb</text>

  <rect x="530" y="370" width="160" height="32" rx="6" fill="#091918" stroke="#22C55E" stroke-width="1.2"/>
  <text x="610" y="391" text-anchor="middle" fill="#22C55E" font-size="10">scrape_vendor_site</text>

  <rect x="695" y="235" width="110" height="32" rx="6" fill="#091918" stroke="#22C55E" stroke-width="1.2"/>
  <text x="750" y="256" text-anchor="middle" fill="#22C55E" font-size="10">send_email</text>

  <rect x="730" y="474" width="145" height="32" rx="6" fill="#091918" stroke="#22C55E" stroke-width="1.2"/>
  <text x="802" y="495" text-anchor="middle" fill="#22C55E" font-size="10">sanctions_mcp</text>

  <rect x="730" y="604" width="145" height="32" rx="6" fill="#091918" stroke="#22C55E" stroke-width="1.2"/>
  <text x="802" y="625" text-anchor="middle" fill="#22C55E" font-size="10">stripe_charge</text>

  <!-- Legend -->
  <g transform="translate(220, 700)">
    <polygon points="0,5 7,-3 17,-3 24,5 17,13 7,13" fill="#0F1C2E" stroke="#4A90D9" stroke-width="1"/>
    <text x="32" y="9" fill="#9CA3AF" font-size="10">Agent</text>
    <rect x="90" y="-3" width="20" height="16" rx="3" fill="#091918" stroke="#22C55E" stroke-width="1"/>
    <text x="118" y="9" fill="#9CA3AF" font-size="10">Tool</text>
    <polygon points="170,5 178,-3 186,5 178,13" fill="#082326" stroke="#06B6D4" stroke-width="1"/>
    <text x="195" y="9" fill="#9CA3AF" font-size="10">Trigger</text>
    <line x1="255" y1="5" x2="285" y2="5" stroke="#4A5563" stroke-width="1.2"/>
    <text x="293" y="9" fill="#9CA3AF" font-size="10">delegates</text>
    <line x1="368" y1="5" x2="398" y2="5" stroke="#4A5563" stroke-width="1" stroke-dasharray="4 3"/>
    <text x="406" y="9" fill="#9CA3AF" font-size="10">uses</text>
  </g>
</svg>
